<?xml version="1.0" ?><svg viewBox="0 0 64 64" xmlns="http://www.w3.org/2000/svg"><defs><style>.cls-1{fill:none;stroke:#000;stroke-linejoin:round;stroke-width:2px;}</style></defs><title/><g data-name="Layer 13" id="Layer_13"><rect class="cls-1" height="4" width="60" x="2" y="58"/><polyline class="cls-1" points="4 58 4 2 28 2 28 58"/><polyline class="cls-1" points="36 58 36 2 60 2 60 58"/><line class="cls-1" x1="4" x2="28" y1="6" y2="6"/><line class="cls-1" x1="4" x2="28" y1="16" y2="16"/><line class="cls-1" x1="4" x2="28" y1="20" y2="20"/><line class="cls-1" x1="4" x2="28" y1="30" y2="30"/><line class="cls-1" x1="4" x2="28" y1="34" y2="34"/><line class="cls-1" x1="4" x2="28" y1="44" y2="44"/><path class="cls-1" d="M12,58V54a4,4,0,0,1,4-4h0a4,4,0,0,1,4,4v4"/><line class="cls-1" x1="16" x2="16" y1="6" y2="16"/><line class="cls-1" x1="16" x2="16" y1="20" y2="30"/><line class="cls-1" x1="16" x2="16" y1="34" y2="44"/><line class="cls-1" x1="36" x2="60" y1="6" y2="6"/><line class="cls-1" x1="36" x2="60" y1="16" y2="16"/><line class="cls-1" x1="36" x2="60" y1="20" y2="20"/><line class="cls-1" x1="36" x2="60" y1="30" y2="30"/><line class="cls-1" x1="36" x2="60" y1="34" y2="34"/><line class="cls-1" x1="36" x2="60" y1="44" y2="44"/><path class="cls-1" d="M44,58V54a4,4,0,0,1,4-4h0a4,4,0,0,1,4,4v4"/><line class="cls-1" x1="48" x2="48" y1="6" y2="16"/><line class="cls-1" x1="48" x2="48" y1="20" y2="30"/><line class="cls-1" x1="48" x2="48" y1="34" y2="44"/><line class="cls-1" x1="28" x2="36" y1="42" y2="42"/><line class="cls-1" x1="28" x2="36" y1="38" y2="38"/><line class="cls-1" x1="28" x2="36" y1="28" y2="28"/><line class="cls-1" x1="28" x2="36" y1="24" y2="24"/><line class="cls-1" x1="28" x2="36" y1="14" y2="14"/><line class="cls-1" x1="28" x2="36" y1="10" y2="10"/></g></svg>